<svg width="84" height="25" viewBox="0 0 84 25" fill="none" xmlns="http://www.w3.org/2000/svg">
<path fill-rule="evenodd" clip-rule="evenodd" d="M0.375763 3.46741C0.375763 1.81055 1.71891 0.467406 3.37576 0.467406H80.2097C81.8666 0.467406 83.2097 1.81055 83.2097 3.46741V21.4223C83.2097 23.0791 81.8666 24.4223 80.2097 24.4223H3.37576C1.71891 24.4223 0.375763 23.0791 0.375763 21.4223V3.46741Z" fill="#F8FAFB"/>
<path d="M33.2854 17.6025C32.4534 17.6025 31.7334 17.4225 31.1254 17.0625C30.5254 16.6945 30.0614 16.1865 29.7334 15.5385C29.4054 14.8825 29.2414 14.1265 29.2414 13.2705C29.2414 12.4065 29.4054 11.6505 29.7334 11.0025C30.0614 10.3465 30.5254 9.8345 31.1254 9.4665C31.7334 9.0985 32.4534 8.9145 33.2854 8.9145C34.2694 8.9145 35.0734 9.1545 35.6974 9.6345C36.3214 10.1145 36.7174 10.7865 36.8854 11.6505H35.4694C35.3574 11.1625 35.1174 10.7745 34.7494 10.4865C34.3814 10.1985 33.8894 10.0545 33.2734 10.0545C32.4334 10.0545 31.7694 10.3425 31.2814 10.9185C30.7934 11.4865 30.5494 12.2705 30.5494 13.2705C30.5494 14.2625 30.7934 15.0425 31.2814 15.6105C31.7694 16.1785 32.4334 16.4625 33.2734 16.4625C33.8894 16.4625 34.3814 16.3265 34.7494 16.0545C35.1174 15.7825 35.3574 15.4105 35.4694 14.9385H36.8854C36.7174 15.7705 36.3214 16.4225 35.6974 16.8945C35.0734 17.3665 34.2694 17.6025 33.2854 17.6025ZM38.3796 17.4585V9.0585H39.6516V12.6585H43.7196V9.0585H44.9916V17.4585H43.7196V13.7025H39.6516V17.4585H38.3796ZM46.2559 17.4585L49.3519 9.0585H50.7439L53.8159 17.4585H52.4719L51.7519 15.4065H48.3199L47.5999 17.4585H46.2559ZM48.6799 14.3985H51.3919L50.0359 10.5705L48.6799 14.3985ZM55.0833 17.4585V9.0585H56.3553V17.4585H55.0833ZM58.1559 17.4585V9.0585H61.0479C61.7119 9.0585 62.2559 9.1705 62.6799 9.3945C63.1119 9.6185 63.4319 9.9225 63.6399 10.3065C63.8479 10.6825 63.9519 11.1025 63.9519 11.5665C63.9519 12.0865 63.8119 12.5585 63.5319 12.9825C63.2599 13.4065 62.8319 13.7105 62.2479 13.8945L64.0359 17.4585H62.5599L60.9279 14.0745H59.4279V17.4585H58.1559ZM59.4279 13.1145H60.9759C61.5519 13.1145 61.9719 12.9745 62.2359 12.6945C62.5079 12.4145 62.6439 12.0505 62.6439 11.6025C62.6439 11.1545 62.5119 10.7985 62.2479 10.5345C61.9839 10.2625 61.5559 10.1265 60.9639 10.1265H59.4279V13.1145Z" fill="#7AC751"/>
<path fill-rule="evenodd" clip-rule="evenodd" d="M14.2092 5.79126C14.7279 5.79126 15.2249 5.99954 15.5918 6.37084L21.1686 12.0156C21.3503 12.1993 21.4944 12.4176 21.5927 12.6577C21.691 12.8979 21.7416 13.1553 21.7416 13.4153C21.7416 13.6752 21.691 13.9327 21.5927 14.1728C21.4944 14.413 21.3503 14.6312 21.1686 14.815L17.5081 18.52C17.3266 18.7039 17.111 18.8498 16.8737 18.9493C16.6364 19.0488 16.3821 19.1 16.1253 19.1C15.8684 19.1 15.6141 19.0488 15.3768 18.9493C15.1395 18.8498 14.924 18.7039 14.7424 18.52L9.16557 12.8753C8.98402 12.6915 8.84001 12.4734 8.74176 12.2332C8.64352 11.9931 8.59295 11.7358 8.59296 11.4759V7.77021C8.59296 7.24536 8.79895 6.74201 9.16561 6.37088C9.53227 5.99976 10.0296 5.79126 10.5481 5.79126H14.2092ZM14.2092 7.12209H10.5481C10.3783 7.12209 10.2154 7.19038 10.0953 7.31192C9.97525 7.43347 9.90779 7.59832 9.90779 7.77021V11.4759C9.90779 11.6476 9.9755 11.8126 10.0952 11.9344L15.672 17.5791C15.9218 17.832 16.3281 17.832 16.5779 17.5791L20.239 13.8734C20.2985 13.8132 20.3458 13.7418 20.378 13.6631C20.4102 13.5844 20.4268 13.5001 20.4268 13.4149C20.4268 13.3298 20.4102 13.2455 20.378 13.1668C20.3458 13.0881 20.2985 13.0167 20.239 12.9565L14.6622 7.31174C14.6026 7.25149 14.5319 7.20372 14.4541 7.17118C14.3762 7.13864 14.2928 7.12196 14.2086 7.12209H14.2092ZM12.5374 8.45293C12.8862 8.45293 13.2206 8.59314 13.4672 8.84272C13.7137 9.0923 13.8523 9.4308 13.8523 9.78376C13.8523 10.1367 13.7137 10.4752 13.4672 10.7248C13.2206 10.9744 12.8862 11.1146 12.5374 11.1146C12.1887 11.1146 11.8543 10.9744 11.6077 10.7248C11.3611 10.4752 11.2226 10.1367 11.2226 9.78376C11.2226 9.4308 11.3611 9.0923 11.6077 8.84272C11.8543 8.59314 12.1887 8.45293 12.5374 8.45293Z" fill="#7AC751"/>
</svg>
