<svg width="81" height="24" viewBox="0 0 81 24" fill="none" xmlns="http://www.w3.org/2000/svg">
<path fill-rule="evenodd" clip-rule="evenodd" d="M0.000139307 3.00024C0.000139307 1.34339 1.34328 0.000243351 3.00014 0.000243351H72.0001C73.657 0.000243351 75.0001 1.34339 75.0001 3.00024V21.0001C75.0001 22.657 73.657 24.0001 72.0001 24.0001H3.00014C1.34329 24.0001 0.000139307 22.657 0.000139307 21.0001V3.00024Z" fill="#F8FAFB"/>
<path d="M29.1101 17.1333V9.7653H26.6261V8.7333H32.8541V9.7653H30.3821V17.1333H29.1101ZM32.6864 17.1333L35.7824 8.7333H37.1744L40.2464 17.1333H38.9024L38.1824 15.0813H34.7504L34.0304 17.1333H32.6864ZM35.1104 14.0733H37.8224L36.4664 10.2453L35.1104 14.0733ZM41.5138 17.1333V8.7333H44.6818C45.5538 8.7333 46.2138 8.9373 46.6618 9.3453C47.1098 9.7533 47.3338 10.2653 47.3338 10.8813C47.3338 11.4173 47.1898 11.8453 46.9018 12.1653C46.6138 12.4773 46.2658 12.6893 45.8578 12.8013C46.1778 12.8653 46.4618 12.9933 46.7098 13.1853C46.9658 13.3773 47.1658 13.6173 47.3098 13.9053C47.4538 14.1933 47.5258 14.5053 47.5258 14.8413C47.5258 15.2733 47.4178 15.6653 47.2018 16.0173C46.9938 16.3613 46.6858 16.6333 46.2778 16.8333C45.8698 17.0333 45.3698 17.1333 44.7778 17.1333H41.5138ZM42.7858 12.3333H44.5258C45.0138 12.3333 45.3858 12.2213 45.6418 11.9973C45.8978 11.7653 46.0258 11.4493 46.0258 11.0493C46.0258 10.6573 45.8978 10.3453 45.6418 10.1133C45.3938 9.8813 45.0138 9.7653 44.5018 9.7653H42.7858V12.3333ZM42.7858 16.0893H44.6098C45.1218 16.0893 45.5178 15.9693 45.7978 15.7293C46.0858 15.4893 46.2298 15.1533 46.2298 14.7213C46.2298 14.2893 46.0818 13.9493 45.7858 13.7013C45.4898 13.4453 45.0898 13.3173 44.5858 13.3173H42.7858V16.0893ZM49.0161 17.1333V8.7333H50.2881V16.1253H54.1041V17.1333H49.0161ZM55.5691 17.1333V8.7333H60.9091V9.7653H56.8411V12.3813H60.5491V13.3893H56.8411V16.1013H60.9091V17.1333H55.5691Z" fill="#7AC751"/>
<path fill-rule="evenodd" clip-rule="evenodd" d="M14.182 5.46509C14.7007 5.46509 15.1977 5.67336 15.5645 6.04467L21.1413 11.6894C21.323 11.8732 21.4671 12.0914 21.5654 12.3315C21.6637 12.5717 21.7143 12.8291 21.7143 13.0891C21.7143 13.3491 21.6637 13.6065 21.5654 13.8467C21.4671 14.0868 21.323 14.305 21.1413 14.4888L17.4809 18.1938C17.2993 18.3777 17.0837 18.5236 16.8464 18.6231C16.6092 18.7226 16.3548 18.7738 16.098 18.7738C15.8411 18.7738 15.5868 18.7226 15.3495 18.6231C15.1123 18.5236 14.8967 18.3777 14.7151 18.1938L9.13829 12.5491C8.95674 12.3653 8.81273 12.1472 8.71448 11.9071C8.61623 11.667 8.56567 11.4096 8.56568 11.1497V7.44404C8.56568 6.91919 8.77167 6.41583 9.13833 6.04471C9.50499 5.67358 10.0023 5.46509 10.5208 5.46509H14.182ZM14.182 6.79592H10.5208C10.351 6.79592 10.1881 6.8642 10.0681 6.98575C9.94797 7.1073 9.88051 7.27215 9.88051 7.44404V11.1497C9.88051 11.3214 9.94822 11.4864 10.0679 11.6082L15.6447 17.2529C15.8945 17.5058 16.3008 17.5058 16.5506 17.2529L20.2117 13.5472C20.2713 13.4871 20.3185 13.4156 20.3507 13.3369C20.3829 13.2582 20.3995 13.1739 20.3995 13.0888C20.3995 13.0036 20.3829 12.9193 20.3507 12.8406C20.3185 12.762 20.2713 12.6905 20.2117 12.6303L14.6349 6.98557C14.5753 6.92531 14.5046 6.87755 14.4268 6.84501C14.3489 6.81247 14.2655 6.79579 14.1813 6.79592H14.182ZM12.5102 8.12676C12.8589 8.12676 13.1933 8.26697 13.4399 8.51655C13.6865 8.76613 13.825 9.10463 13.825 9.45759C13.825 9.81055 13.6865 10.1491 13.4399 10.3986C13.1933 10.6482 12.8589 10.7884 12.5102 10.7884C12.1614 10.7884 11.827 10.6482 11.5804 10.3986C11.3339 10.1491 11.1953 9.81055 11.1953 9.45759C11.1953 9.10463 11.3339 8.76613 11.5804 8.51655C11.827 8.26697 12.1614 8.12676 12.5102 8.12676Z" fill="#7AC751"/>
</svg>
