<svg width="84" height="25" viewBox="0 0 84 25" fill="none" xmlns="http://www.w3.org/2000/svg">
<path fill-rule="evenodd" clip-rule="evenodd" d="M0.375747 3.46741C0.375747 1.81055 1.71889 0.467406 3.37575 0.467406H80.2097C81.8666 0.467406 83.2097 1.81055 83.2097 3.46741V21.4223C83.2097 23.0791 81.8666 24.4223 80.2097 24.4223H3.37575C1.71889 24.4223 0.375747 23.0791 0.375747 21.4223V3.46741Z" fill="#F8FAFB"/>
<path d="M29.4145 17.4585V9.0585H32.5825C33.4545 9.0585 34.1145 9.2625 34.5625 9.6705C35.0105 10.0785 35.2345 10.5905 35.2345 11.2065C35.2345 11.7425 35.0905 12.1705 34.8025 12.4905C34.5145 12.8025 34.1665 13.0145 33.7585 13.1265C34.0785 13.1905 34.3625 13.3185 34.6105 13.5105C34.8665 13.7025 35.0665 13.9425 35.2105 14.2305C35.3545 14.5185 35.4265 14.8305 35.4265 15.1665C35.4265 15.5985 35.3185 15.9905 35.1025 16.3425C34.8945 16.6865 34.5865 16.9585 34.1785 17.1585C33.7705 17.3585 33.2705 17.4585 32.6785 17.4585H29.4145ZM30.6865 12.6585H32.4265C32.9145 12.6585 33.2865 12.5465 33.5425 12.3225C33.7985 12.0905 33.9265 11.7745 33.9265 11.3745C33.9265 10.9825 33.7985 10.6705 33.5425 10.4385C33.2945 10.2065 32.9145 10.0905 32.4025 10.0905H30.6865V12.6585ZM30.6865 16.4145H32.5105C33.0225 16.4145 33.4185 16.2945 33.6985 16.0545C33.9865 15.8145 34.1305 15.4785 34.1305 15.0465C34.1305 14.6145 33.9825 14.2745 33.6865 14.0265C33.3905 13.7705 32.9905 13.6425 32.4865 13.6425H30.6865V16.4145ZM36.9167 17.4585V9.0585H42.2567V10.0905H38.1887V12.7065H41.8967V13.7145H38.1887V16.4265H42.2567V17.4585H36.9167ZM43.8682 17.4585V9.0585H45.1402L49.3522 15.3825V9.0585H50.6242V17.4585H49.3522L45.1402 11.1345V17.4585H43.8682ZM56.1691 17.6025C55.3371 17.6025 54.6171 17.4225 54.0091 17.0625C53.4091 16.6945 52.9451 16.1865 52.6171 15.5385C52.2891 14.8825 52.1251 14.1265 52.1251 13.2705C52.1251 12.4065 52.2891 11.6505 52.6171 11.0025C52.9451 10.3465 53.4091 9.8345 54.0091 9.4665C54.6171 9.0985 55.3371 8.9145 56.1691 8.9145C57.1531 8.9145 57.9571 9.1545 58.5811 9.6345C59.2051 10.1145 59.6011 10.7865 59.7691 11.6505H58.3531C58.2411 11.1625 58.0011 10.7745 57.6331 10.4865C57.2651 10.1985 56.7731 10.0545 56.1571 10.0545C55.3171 10.0545 54.6531 10.3425 54.1651 10.9185C53.6771 11.4865 53.4331 12.2705 53.4331 13.2705C53.4331 14.2625 53.6771 15.0425 54.1651 15.6105C54.6531 16.1785 55.3171 16.4625 56.1571 16.4625C56.7731 16.4625 57.2651 16.3265 57.6331 16.0545C58.0011 15.7825 58.2411 15.4105 58.3531 14.9385H59.7691C59.6011 15.7705 59.2051 16.4225 58.5811 16.8945C57.9571 17.3665 57.1531 17.6025 56.1691 17.6025ZM61.2633 17.4585V9.0585H62.5353V12.6585H66.6033V9.0585H67.8753V17.4585H66.6033V13.7025H62.5353V17.4585H61.2633Z" fill="#7AC751"/>
<path fill-rule="evenodd" clip-rule="evenodd" d="M14.2092 5.79126C14.7279 5.79126 15.2249 5.99954 15.5918 6.37084L21.1686 12.0156C21.3503 12.1993 21.4944 12.4176 21.5927 12.6577C21.691 12.8979 21.7416 13.1553 21.7416 13.4153C21.7416 13.6752 21.691 13.9327 21.5927 14.1728C21.4944 14.413 21.3503 14.6312 21.1686 14.815L17.5081 18.52C17.3266 18.7039 17.111 18.8498 16.8737 18.9493C16.6364 19.0488 16.3821 19.1 16.1253 19.1C15.8684 19.1 15.6141 19.0488 15.3768 18.9493C15.1395 18.8498 14.924 18.7039 14.7424 18.52L9.16556 12.8753C8.98401 12.6915 8.84 12.4734 8.74176 12.2332C8.64351 11.9931 8.59295 11.7358 8.59296 11.4759V7.77021C8.59296 7.24536 8.79894 6.74201 9.16561 6.37088C9.53227 5.99976 10.0296 5.79126 10.5481 5.79126H14.2092ZM14.2092 7.12209H10.5481C10.3783 7.12209 10.2154 7.19038 10.0953 7.31192C9.97524 7.43347 9.90778 7.59832 9.90778 7.77021V11.4759C9.90778 11.6476 9.9755 11.8126 10.0951 11.9344L15.672 17.5791C15.9218 17.832 16.3281 17.832 16.5779 17.5791L20.239 13.8734C20.2985 13.8132 20.3457 13.7418 20.378 13.6631C20.4102 13.5844 20.4268 13.5001 20.4268 13.4149C20.4268 13.3298 20.4102 13.2455 20.378 13.1668C20.3457 13.0881 20.2985 13.0167 20.239 12.9565L14.6622 7.31174C14.6026 7.25149 14.5319 7.20372 14.454 7.17118C14.3762 7.13864 14.2928 7.12196 14.2086 7.12209H14.2092ZM12.5374 8.45293C12.8861 8.45293 13.2206 8.59314 13.4672 8.84272C13.7137 9.0923 13.8523 9.4308 13.8523 9.78376C13.8523 10.1367 13.7137 10.4752 13.4672 10.7248C13.2206 10.9744 12.8861 11.1146 12.5374 11.1146C12.1887 11.1146 11.8543 10.9744 11.6077 10.7248C11.3611 10.4752 11.2226 10.1367 11.2226 9.78376C11.2226 9.4308 11.3611 9.0923 11.6077 8.84272C11.8543 8.59314 12.1887 8.45293 12.5374 8.45293Z" fill="#7AC751"/>
</svg>
