<svg width="100" height="25" viewBox="0 0 100 25" fill="none" xmlns="http://www.w3.org/2000/svg">
<path fill-rule="evenodd" clip-rule="evenodd" d="M0.34682 3.14184C0.34682 1.48499 1.68997 0.141845 3.34682 0.141845H96.9448C98.6017 0.141845 99.9448 1.48499 99.9448 3.14184V21.0967C99.9448 22.7536 98.6017 24.0967 96.9448 24.0967H3.34682C1.68997 24.0967 0.34682 22.7536 0.34682 21.0967V3.14184Z" fill="#F8FAFB"/>
<path d="M28.27 17.1333V8.7333H33.538V9.7653H29.542V12.4173H32.854V13.4373H29.542V17.1333H28.27ZM38.0256 17.2773C37.4256 17.2773 36.8816 17.1613 36.3936 16.9293C35.9136 16.6893 35.5296 16.3253 35.2416 15.8373C34.9616 15.3493 34.8216 14.7293 34.8216 13.9773V8.7333H36.0936V13.9893C36.0936 14.7253 36.2696 15.2653 36.6216 15.6093C36.9736 15.9533 37.4496 16.1253 38.0496 16.1253C38.6416 16.1253 39.1136 15.9533 39.4656 15.6093C39.8176 15.2653 39.9936 14.7253 39.9936 13.9893V8.7333H41.2656V13.9773C41.2656 14.7293 41.1176 15.3493 40.8216 15.8373C40.5336 16.3253 40.1416 16.6893 39.6456 16.9293C39.1576 17.1613 38.6176 17.2773 38.0256 17.2773ZM42.9933 17.1333V8.7333H45.8853C46.5493 8.7333 47.0933 8.8453 47.5173 9.0693C47.9493 9.2933 48.2693 9.5973 48.4773 9.9813C48.6853 10.3573 48.7893 10.7773 48.7893 11.2413C48.7893 11.7613 48.6493 12.2333 48.3693 12.6573C48.0973 13.0813 47.6693 13.3853 47.0853 13.5693L48.8733 17.1333H47.3973L45.7653 13.7493H44.2653V17.1333H42.9933ZM44.2653 12.7893H45.8133C46.3893 12.7893 46.8093 12.6493 47.0733 12.3693C47.3453 12.0893 47.4813 11.7253 47.4813 11.2773C47.4813 10.8293 47.3493 10.4733 47.0853 10.2093C46.8213 9.9373 46.3933 9.8013 45.8013 9.8013H44.2653V12.7893ZM50.39 17.1333V8.7333H51.662L55.874 15.0573V8.7333H57.146V17.1333H55.874L51.662 10.8093V17.1333H50.39ZM58.947 17.1333V8.7333H60.219V17.1333H58.947ZM63.9875 17.1333V9.7653H61.5035V8.7333H67.7315V9.7653H65.2595V17.1333H63.9875ZM72.1619 17.2773C71.5619 17.2773 71.0179 17.1613 70.5299 16.9293C70.0499 16.6893 69.6659 16.3253 69.3779 15.8373C69.0979 15.3493 68.9579 14.7293 68.9579 13.9773V8.7333H70.2299V13.9893C70.2299 14.7253 70.4059 15.2653 70.7579 15.6093C71.1099 15.9533 71.5859 16.1253 72.1859 16.1253C72.7779 16.1253 73.2499 15.9533 73.6019 15.6093C73.9539 15.2653 74.1299 14.7253 74.1299 13.9893V8.7333H75.4019V13.9773C75.4019 14.7293 75.2539 15.3493 74.9579 15.8373C74.6699 16.3253 74.2779 16.6893 73.7819 16.9293C73.2939 17.1613 72.7539 17.2773 72.1619 17.2773ZM77.1295 17.1333V8.7333H80.0215C80.6855 8.7333 81.2295 8.8453 81.6535 9.0693C82.0855 9.2933 82.4055 9.5973 82.6135 9.9813C82.8215 10.3573 82.9255 10.7773 82.9255 11.2413C82.9255 11.7613 82.7855 12.2333 82.5055 12.6573C82.2335 13.0813 81.8055 13.3853 81.2215 13.5693L83.0095 17.1333H81.5335L79.9015 13.7493H78.4015V17.1333H77.1295ZM78.4015 12.7893H79.9495C80.5255 12.7893 80.9455 12.6493 81.2095 12.3693C81.4815 12.0893 81.6175 11.7253 81.6175 11.2773C81.6175 10.8293 81.4855 10.4733 81.2215 10.2093C80.9575 9.9373 80.5295 9.8013 79.9375 9.8013H78.4015V12.7893ZM84.5263 17.1333V8.7333H89.8663V9.7653H85.7983V12.3813H89.5063V13.3893H85.7983V16.1013H89.8663V17.1333H84.5263Z" fill="#7AC751"/>
<path fill-rule="evenodd" clip-rule="evenodd" d="M14.1819 5.46509C14.7006 5.46509 15.1976 5.67336 15.5644 6.04467L21.1413 11.6894C21.3229 11.8732 21.467 12.0914 21.5654 12.3315C21.6637 12.5717 21.7143 12.8291 21.7143 13.0891C21.7143 13.3491 21.6637 13.6065 21.5654 13.8467C21.467 14.0868 21.3229 14.305 21.1413 14.4888L17.4808 18.1938C17.2992 18.3777 17.0836 18.5236 16.8464 18.6231C16.6091 18.7226 16.3548 18.7738 16.0979 18.7738C15.8411 18.7738 15.5868 18.7226 15.3495 18.6231C15.1122 18.5236 14.8966 18.3777 14.7151 18.1938L9.13822 12.5491C8.95667 12.3653 8.81266 12.1472 8.71441 11.9071C8.61616 11.667 8.5656 11.4096 8.56561 11.1497V7.44404C8.56561 6.91919 8.7716 6.41583 9.13826 6.04471C9.50492 5.67358 10.0022 5.46509 10.5208 5.46509H14.1819ZM14.1819 6.79592H10.5208C10.3509 6.79592 10.1881 6.8642 10.068 6.98575C9.9479 7.1073 9.88044 7.27215 9.88044 7.44404V11.1497C9.88044 11.3214 9.94815 11.4864 10.0678 11.6082L15.6446 17.2529C15.8944 17.5058 16.3007 17.5058 16.5505 17.2529L20.2117 13.5472C20.2712 13.4871 20.3184 13.4156 20.3506 13.3369C20.3828 13.2582 20.3994 13.1739 20.3994 13.0888C20.3994 13.0036 20.3828 12.9193 20.3506 12.8406C20.3184 12.762 20.2712 12.6905 20.2117 12.6303L14.6348 6.98557C14.5753 6.92531 14.5045 6.87755 14.4267 6.84501C14.3489 6.81247 14.2654 6.79579 14.1812 6.79592H14.1819ZM12.5101 8.12676C12.8588 8.12676 13.1932 8.26697 13.4398 8.51655C13.6864 8.76613 13.8249 9.10463 13.8249 9.45759C13.8249 9.81055 13.6864 10.1491 13.4398 10.3986C13.1932 10.6482 12.8588 10.7884 12.5101 10.7884C12.1614 10.7884 11.8269 10.6482 11.5804 10.3986C11.3338 10.1491 11.1953 9.81055 11.1953 9.45759C11.1953 9.10463 11.3338 8.76613 11.5804 8.51655C11.8269 8.26697 12.1614 8.12676 12.5101 8.12676Z" fill="#7AC751"/>
</svg>
